# xmcd
#
# Track frame offsets:
#	150
#	10840
#	19747
#	36348
#	51621
#	61388
#	73384
#	93488
#	100002
#	112087
#	124285
#	135994
#	148316
#	164896
#	174726
#
# Disc length: 2508 seconds
#
# Revision: 0
# Processed by: cddbd v1.5.2PL0 Copyright (c) Steve Scherf et al.
# Submitted via: EasyCDDAExtractor 16.0.8.2
#
DISCID=ea09ca0f
DTITLE=Συλλογικός δίσκος - Αντιστασιακά τραγ. λαών Ευρώπης
DYEAR=2008
DGENRE=Ξένη πατριωτική
TTITLE0=Άγνωστος - Πες μου, πού πας όμορφη μελαχροινή [Ισπανία]
TTITLE1=Άγνωστος - Ρωτούν για τον πατέρα μου [Γερμανία]
TTITLE2=Άγνωστος - Σάτιρα για τον Μπαντόλιο [Ιταλία]
TTITLE3=Άγνωστος - Ο Μαντού από το Καβαράν [Ρουμανία]
TTITLE4=Άγνωστος - Το τραγούδι της λευτεριάς [Γαλλία]
TTITLE5=Χορωδία - Η καρδιά στο σακίδιο [Πολωνία]
TTITLE6=Άγνωστος - Το τραγούδι των παρτιζάνων του Μπριάνσκ [ΕΣΣΔ]
TTITLE7=Χορωδία - Το πολυβόλο [Γιουγκοσλαυΐα]
TTITLE8=Χορωδία - Ο Μπέλλα Κουν δεν έχει στρατιώτες [Ουγγαρία]
TTITLE9=Άγνωστος - Αδέλφια στις πόλεις [Αυστρία]
TTITLE10=Άγνωστος - Στίχοι για την απεργία [Ισπανία]
TTITLE11=Χορωδία - Βαριά ομίχλη έπεσε [Βουλγαρία]
TTITLE12=Χορωδία - Πιο δυνατοί από πριν [Ιταλία]
TTITLE13=Χορωδία - Ο παρτιζάνος προετοιμάζεται για την μάχη [Βουλγαρία]
TTITLE14=Χορωδία - Ένας δίκαιος αγώνας (Ιερός πόλ.)[ΕΣΣΔ,Α Β.Αλεξαντρώφ]
EXTD=
EXTT0=
EXTT1=
EXTT2=
EXTT3=
EXTT4=
EXTT5=
EXTT6=
EXTT7=
EXTT8=
EXTT9=
EXTT10=
EXTT11=
EXTT12=
EXTT13=
EXTT14=
PLAYORDER=
